<svg width="120" height="124" viewBox="0 0 120 124" fill="none" xmlns="http://www.w3.org/2000/svg">
<g opacity="0.3">
<path d="M114.5 100H110.5V104H114.5V100Z" fill="#FFF5D0"/>
</g>
<g opacity="0.3">
<path d="M94.5 60H90.5V64H94.5V60Z" fill="#FFF5D0"/>
</g>
<g opacity="0.3">
<path d="M34.5 90H30.5V94H34.5V90Z" fill="#FFF5D0"/>
</g>
<g opacity="0.3">
<path d="M14.5 80H10.5V84H14.5V80Z" fill="#FFF5D0"/>
</g>
<g opacity="0.3">
<path d="M26.0002 124H7.2002L15.5002 111.7C20.7002 104.1 29.8002 100.5 38.8002 102.5L37.9002 106.4C30.5002 104.7 23.0002 107.7 18.8002 113.9L14.7002 119.9H26.0002V124Z" fill="#FFF5D0"/>
</g>
<g opacity="0.3">
<path d="M110.4 124H94V120H102.8L100.4 116.5C97.3 111.9 91.5 109.9 86.2 111.6L85 107.8C92.1 105.6 99.6 108.2 103.7 114.3L110.4 124Z" fill="#FFF5D0"/>
</g>
<path d="M95.1 120L86.5 107.4C84.7 104.7 82.5 102.4 80 100.4V89C80 82.4 74.6 77 68 77H62V18.8C66.6 17.9 70 13.8 70 9V0H50V9C50 13.8 53.4 17.9 58 18.8V77H52C45.4 77 40 82.4 40 89V100.4C37.5 102.4 35.4 104.7 33.5 107.4L24.9 120H0V124H120V120H95.1ZM54 9V4H66V9C66 12.3 63.3 15 60 15C56.7 15 54 12.3 54 9ZM44 89C44 84.6 47.6 81 52 81H58V89H62V81H68C72.4 81 76 84.6 76 89V97.7C71.2 94.9 65.7 93.4 60 93.4C54.3 93.4 48.8 94.9 44 97.7V89ZM48.9 120L53 109.2L49.3 107.8L44.6 120H29.8L36.9 109.6C42.2 101.8 50.6 97.3 60.1 97.3C69.6 97.3 78 101.8 83.3 109.6L90.4 120H48.9Z" fill="#FFF5D0"/>
</svg>
