<svg width="117" height="124" viewBox="0 0 117 124" fill="none" xmlns="http://www.w3.org/2000/svg">
<path d="M113 35H109V25H105V35H101V21.5L91 3.5V0H42V3.5L32 21.5V35H28V25H11.2L0 36.2V69H24V95.2C17 96.2 11.5 102.2 11.5 109.5C11.5 117.5 18 124 26 124C34 124 40.5 117.5 40.5 109.5C40.5 102.2 35 96.1 28 95.2V79H105V122H109V39H113V57H117V17H113V35ZM36 22.5L46 4.5V4H87V4.5L97 22.5V35H36V22.5ZM36 39H97V58.2C97 59.5 96.1 60.7 94.8 61.1L93.2 61.5C84.9 63.8 76.4 65 67.8 65H65C55.9 65 46.9 63.7 38.2 61.1C36.9 60.7 36 59.5 36 58.2V39ZM4 62H12V58H4V55H12V51H4V37.8L12.8 29H24V65H4V62ZM36.5 109.5C36.5 115.3 31.8 120 26 120C20.2 120 15.5 115.3 15.5 109.5C15.5 103.7 20.2 99 26 99C31.8 99 36.5 103.7 36.5 109.5ZM105 75H28V69V67V39H32V58.3C32 61.4 34.1 64.1 37 65C46.1 67.7 55.5 69 65 69H67.8C76.8 69 85.7 67.8 94.3 65.4L95.9 65C98.9 64.2 101 61.4 101 58.3V39H105V75V75Z" fill="#FFF5D0"/>
<path d="M26 112.5C27.6569 112.5 29 111.157 29 109.5C29 107.843 27.6569 106.5 26 106.5C24.3431 106.5 23 107.843 23 109.5C23 111.157 24.3431 112.5 26 112.5Z" fill="#FFF5D0"/>
</svg>
