<svg width="124" height="118" viewBox="0 0 124 118" fill="none" xmlns="http://www.w3.org/2000/svg">
<path d="M62 103.922H22V107.922H62V103.922Z" fill="#FFF5D0"/>
<path d="M4 91.9218H30V93.9218H12C5.4 93.9218 0 99.3218 0 105.922C0 112.522 5.4 117.922 12 117.922H72C78.6 117.922 84 112.522 84 105.922C84 99.3218 78.6 93.9218 72 93.9218H54V91.9218H64C67.9 91.9218 71 88.8218 71 84.9218V72.6218C71 70.5218 70.4 68.4218 69.4 66.6218L63.9 57.1218L85.6 23.5218L111.7 68.4218C112.6 69.9218 114 71.0218 115.7 71.4218C116.3 71.5218 116.8 71.6218 117.4 71.6218C117.5 71.6218 117.6 71.6218 117.7 71.6218V76.2218L89 82.5218L86.5 78.0218L83 80.0218L89.8 92.2218C94.1 99.9218 102.2 104.422 110.6 104.422C112.5 104.422 114.4 104.222 116.4 103.722C119.5 102.922 121.7 100.122 121.7 96.9218V70.1218C124 68.1218 124.6 64.7218 123.1 62.0218L94.3 10.0218C95.8 7.02176 94.9 3.32176 92.1 1.32176C89.1 -0.878237 84.9 -0.278236 82.6 2.72176L51.8 41.9218C51.6 41.9218 51.3 41.9218 51.1 41.9218H30V56.9218H18C15.8 56.9218 14 58.7218 14 60.9218V66.9218H4C1.8 66.9218 0 68.7218 0 70.9218V87.9218C0 90.1218 1.8 91.9218 4 91.9218ZM117.6 97.0218C117.6 98.4218 116.7 99.6218 115.3 99.9218C106.6 102.122 97.5 98.1218 93.2 90.3218L90.9 86.2218L117.6 80.3218V97.0218ZM80 105.922C80 110.322 76.4 113.922 72 113.922H12C7.6 113.922 4 110.322 4 105.922C4 101.522 7.6 97.9218 12 97.9218H72C76.4 97.9218 80 101.522 80 105.922ZM50 93.9218H34V91.9218H50V93.9218ZM67 72.6218V78.5218L42.4 73.7218C41 73.4218 40 72.2218 40 70.8218V45.9218H51.1C52.2 45.9218 53.2 46.5218 53.7 47.4218L65.9 68.6218C66.6 69.8218 67 71.2218 67 72.6218ZM118.6 67.4218C118 67.7218 117.3 67.8218 116.7 67.7218C116 67.5218 115.5 67.1218 115.1 66.5218L88 19.8218L91.8 13.9218L119.6 63.9218C120.2 65.1218 119.8 66.7218 118.6 67.4218ZM85.8 5.12176C86.8 3.92176 88.5 3.62176 89.8 4.52176C91.1 5.42176 91.4 7.12176 90.6 8.52176L61.7 53.2218L57.2 45.4218C56.8 44.7218 56.3 44.1218 55.7 43.6218L85.8 5.12176ZM34 45.9218H36V70.8218C36 74.2218 38.4 77.0218 41.7 77.7218L67 82.5218V84.9218C67 86.6218 65.7 87.9218 64 87.9218H34V45.9218ZM18 60.9218H30V66.9218H18V60.9218ZM4 70.9218H7V77.9218H11V70.9218H30V87.9218H4V70.9218Z" fill="#FFF5D0"/>
<path d="M12 108.922C13.6569 108.922 15 107.579 15 105.922C15 104.265 13.6569 102.922 12 102.922C10.3431 102.922 9 104.265 9 105.922C9 107.579 10.3431 108.922 12 108.922Z" fill="#FFF5D0"/>
<path d="M72 108.922C73.6569 108.922 75 107.579 75 105.922C75 104.265 73.6569 102.922 72 102.922C70.3431 102.922 69 104.265 69 105.922C69 107.579 70.3431 108.922 72 108.922Z" fill="#FFF5D0"/>
</svg>
