<svg width="124" height="111" viewBox="0 0 124 111" fill="none" xmlns="http://www.w3.org/2000/svg">
<path d="M0 66H20V107H2V111H42V107H24V66H100V107H82V111H122V107H104V66H124V32H0V66ZM61.2 62H36.8L62.8 36H87.1L61.2 62ZM92.8 36H117.1L91.1 62H66.8L92.8 36ZM31.2 62H6.8L32.8 36H57.1L31.2 62ZM96.8 62L120 38.8V62H96.8ZM27.2 36L4 59.2V36H27.2Z" fill="#FFF5D0"/>
<path d="M22 28.5C27.2 28.5 31.5 24.2 31.5 19C31.5 13.8 27.2 9.5 22 9.5C16.8 9.5 12.5 13.8 12.5 19C12.5 24.2 16.8 28.5 22 28.5ZM22 13.5C25 13.5 27.5 16 27.5 19C27.5 22 25 24.5 22 24.5C19 24.5 16.5 22 16.5 19C16.5 16 19 13.5 22 13.5Z" fill="#FFF5D0"/>
<path d="M102 28.5C107.2 28.5 111.5 24.2 111.5 19C111.5 13.8 107.2 9.5 102 9.5C96.8 9.5 92.5 13.8 92.5 19C92.5 24.2 96.8 28.5 102 28.5ZM102 13.5C105 13.5 107.5 16 107.5 19C107.5 22 105 24.5 102 24.5C99 24.5 96.5 22 96.5 19C96.5 16 99 13.5 102 13.5Z" fill="#FFF5D0"/>
<path d="M83 23.2999L86.9 22.3999C86.6 21.2999 86.5 20.0999 86.5 18.8999H82.5C82.5 20.3999 82.7 21.8999 83 23.2999Z" fill="#FFF5D0"/>
<path d="M97.7001 0C96.3001 0.3 94.9001 0.8 93.6001 1.4L95.3001 5C96.3001 4.5 97.4001 4.1 98.6001 3.9L97.7001 0Z" fill="#FFF5D0"/>
<path d="M116 12.2001L119.6 10.5C119 9.20005 118.2 7.90005 117.3 6.80005L114.2 9.30005C114.8 10.2 115.5 11.2001 116 12.2001Z" fill="#FFF5D0"/>
<path d="M106.3 0L105.4 3.9C106.5 4.2 107.6 4.5 108.7 5L110.4 1.4C109.1 0.8 107.8 0.3 106.3 0Z" fill="#FFF5D0"/>
<path d="M121.5 19H117.5C117.5 20.1 117.4 21.3 117.1 22.4L121 23.3C121.4 21.9 121.5 20.4 121.5 19Z" fill="#FFF5D0"/>
<path d="M89.9 9.30005L86.8 6.80005C85.9 7.90005 85.1 9.20005 84.5 10.5L88.1 12.2001C88.5 11.2001 89.2 10.2 89.9 9.30005Z" fill="#FFF5D0"/>
<path d="M9.9 9.30005L6.8 6.80005C5.9 7.90005 5.1 9.20005 4.5 10.5L8.1 12.2001C8.5 11.2001 9.2 10.2 9.9 9.30005Z" fill="#FFF5D0"/>
<path d="M39.6002 10.5C39.0002 9.20005 38.2002 7.90005 37.3002 6.80005L34.2002 9.30005C34.9002 10.2 35.5002 11.2001 36.1002 12.2001L39.6002 10.5Z" fill="#FFF5D0"/>
<path d="M26.2999 0L25.3999 3.9C26.4999 4.2 27.5999 4.5 28.6999 5L30.3999 1.4C29.0999 0.8 27.6999 0.3 26.2999 0Z" fill="#FFF5D0"/>
<path d="M17.7001 0C16.3001 0.3 14.9001 0.8 13.6001 1.4L15.3001 5C16.3001 4.5 17.4001 4.1 18.6001 3.9L17.7001 0Z" fill="#FFF5D0"/>
<path d="M41.5001 19H37.5001C37.5001 20.1 37.4001 21.3 37.1001 22.4L41.0001 23.3C41.3001 21.9 41.5001 20.4 41.5001 19Z" fill="#FFF5D0"/>
<path d="M6.9 22.3999C6.6 21.2999 6.5 20.0999 6.5 18.8999H2.5C2.5 20.2999 2.7 21.7999 3 23.1999L6.9 22.3999Z" fill="#FFF5D0"/>
</svg>
