<svg width="124" height="64" viewBox="0 0 124 64" fill="none" xmlns="http://www.w3.org/2000/svg">
<path d="M21.5 55C23.1569 55 24.5 53.6569 24.5 52C24.5 50.3431 23.1569 49 21.5 49C19.8431 49 18.5 50.3431 18.5 52C18.5 53.6569 19.8431 55 21.5 55Z" fill="#FFF5D0"/>
<path d="M51.5 55C53.1569 55 54.5 53.6569 54.5 52C54.5 50.3431 53.1569 49 51.5 49C49.8431 49 48.5 50.3431 48.5 52C48.5 53.6569 49.8431 55 51.5 55Z" fill="#FFF5D0"/>
<path d="M101.5 55C103.157 55 104.5 53.6569 104.5 52C104.5 50.3431 103.157 49 101.5 49C99.8431 49 98.5 50.3431 98.5 52C98.5 53.6569 99.8431 55 101.5 55Z" fill="#FFF5D0"/>
<path d="M105 0H84V44H92.6C91.1 45.7 90.1 47.7 89.7 50H86V46H67.7V50H63.3C62.9 47.7 61.9 45.7 60.4 44H81V0H0V44H12.6C10.7 46.1 9.5 48.9 9.5 52C9.5 58.6 14.9 64 21.5 64C27.4 64 32.4 59.7 33.3 54H39.7C40.7 59.7 45.6 64 51.5 64C57.4 64 62.4 59.7 63.3 54H67.7V58H86V54H89.7C90.7 59.7 95.6 64 101.5 64C107.4 64 112.4 59.7 113.3 54H116.9C120.8 54 123.9 50.9 123.9 47V29.1L116.2 7.8C114.6 3.2 110 0 105 0ZM4 4H18V25H22V4H38V25H42V4H58V25H62V4H77V40H4V4ZM30.5 44H42.7C41.2 45.7 40.2 47.7 39.8 50H33.4C33 47.7 31.9 45.7 30.5 44ZM21.5 60C17.1 60 13.5 56.4 13.5 52C13.5 47.6 17.1 44 21.5 44C25.9 44 29.5 47.6 29.5 52C29.5 56.4 25.9 60 21.5 60ZM51.5 60C47.1 60 43.5 56.4 43.5 52C43.5 47.6 47.1 44 51.5 44C55.9 44 59.5 47.6 59.5 52C59.5 56.4 56 60 51.5 60ZM82 54H71.7V50H82V54ZM112.8 10L119.1 27.4L106.4 24.9C105 24.6 104 23.4 104 22V10H112.8ZM101.5 60C97.1 60 93.5 56.4 93.5 52C93.5 47.6 97.1 44 101.5 44C105.9 44 109.5 47.6 109.5 52C109.5 56.4 106 60 101.5 60ZM117 50H113.4C112.5 44.5 107.8 40.2 102 40H88V4H105C107 4 108.8 4.8 110.3 6H100V21.9C100 25.2 102.4 28.1 105.6 28.8L120 31.7V47C120 48.7 118.7 50 117 50Z" fill="#FFF5D0"/>
</svg>
