<svg width="128" height="128" viewBox="0 0 128 128" fill="none" xmlns="http://www.w3.org/2000/svg">
<g clip-path="url(#clip0_67_65)">
<path d="M64.0002 128C62.6584 128 61.3297 127.736 60.0907 127.221C58.8516 126.706 57.7265 125.951 56.7802 125V125L3.00016 71.2199C2.05194 70.2718 1.29976 69.1462 0.786586 67.9074C0.273408 66.6686 0.00927734 65.3408 0.00927734 63.9999C0.00927734 62.659 0.273408 61.3313 0.786586 60.0924C1.29976 58.8536 2.05194 57.728 3.00016 56.7799L56.7802 2.99993C58.6962 1.08736 61.2929 0.0131836 64.0002 0.0131836C66.7074 0.0131836 69.3041 1.08736 71.2202 2.99993L125 56.7799C125.948 57.728 126.701 58.8536 127.214 60.0924C127.727 61.3313 127.991 62.659 127.991 63.9999C127.991 65.3408 127.727 66.6686 127.214 67.9074C126.701 69.1462 125.948 70.2718 125 71.2199L71.2202 125C70.2738 125.951 69.1487 126.706 67.9097 127.221C66.6706 127.736 65.3419 128 64.0002 128ZM59.6102 122.18C60.1861 122.757 60.8703 123.216 61.6236 123.528C62.377 123.841 63.1845 124.002 64.0002 124.002C64.8158 124.002 65.6234 123.841 66.3767 123.528C67.13 123.216 67.8142 122.757 68.3902 122.18L122.18 68.3899C122.758 67.814 123.216 67.1298 123.528 66.3764C123.841 65.6231 124.002 64.8155 124.002 63.9999C124.002 63.1843 123.841 62.3767 123.528 61.6234C123.216 60.8701 122.758 60.1859 122.18 59.6099L68.3902 5.81993C67.8142 5.24242 67.13 4.78423 66.3767 4.4716C65.6234 4.15897 64.8158 3.99804 64.0002 3.99804C63.1845 3.99804 62.377 4.15897 61.6236 4.4716C60.8703 4.78423 60.1861 5.24242 59.6102 5.81993L5.82016 59.6099C5.24265 60.1859 4.78446 60.8701 4.47183 61.6234C4.1592 62.3767 3.99827 63.1843 3.99827 63.9999C3.99827 64.8155 4.1592 65.6231 4.47183 66.3764C4.78446 67.1298 5.24265 67.814 5.82016 68.3899L59.6102 122.18Z" fill="#313131"/>
<path d="M64.0001 82C61.869 82.0043 59.8191 81.1828 58.2808 79.7079C56.7425 78.233 55.8355 76.2194 55.7501 74.09L54.2701 38.6C54.2229 37.4875 54.4013 36.377 54.7947 35.3353C55.1881 34.2936 55.7883 33.3423 56.5592 32.5388C57.33 31.7352 58.2555 31.096 59.28 30.6597C60.3044 30.2234 61.4066 29.999 62.5201 30H65.5201C66.6336 29.999 67.7358 30.2234 68.7602 30.6597C69.7847 31.096 70.7102 31.7352 71.4811 32.5388C72.2519 33.3423 72.8521 34.2936 73.2455 35.3353C73.6389 36.377 73.8174 37.4875 73.7701 38.6L72.2501 74.09C72.1648 76.2194 71.2577 78.233 69.7194 79.7079C68.1811 81.1828 66.1312 82.0043 64.0001 82V82ZM62.5201 34C61.9465 33.9995 61.3788 34.1151 60.851 34.3398C60.3233 34.5646 59.8465 34.8938 59.4494 35.3078C59.0523 35.7217 58.7431 36.2117 58.5405 36.7483C58.3378 37.2849 58.2458 37.8569 58.2701 38.43L59.7501 73.92C59.7501 75.0472 60.1979 76.1282 60.9949 76.9252C61.7919 77.7222 62.873 78.17 64.0001 78.17C65.1273 78.17 66.2083 77.7222 67.0053 76.9252C67.8024 76.1282 68.2501 75.0472 68.2501 73.92L69.7301 38.43C69.7544 37.8569 69.6625 37.2849 69.4598 36.7483C69.2571 36.2117 68.9479 35.7217 68.5508 35.3078C68.1537 34.8938 67.6769 34.5646 67.1492 34.3398C66.6215 34.1151 66.0537 33.9995 65.4801 34H62.5201Z" fill="#313131"/>
<path d="M64 102C62.4178 102 60.871 101.531 59.5554 100.652C58.2399 99.7727 57.2145 98.5233 56.609 97.0615C56.0035 95.5997 55.845 93.9911 56.1537 92.4393C56.4624 90.8874 57.2243 89.462 58.3432 88.3432C59.462 87.2243 60.8874 86.4624 62.4393 86.1537C63.9911 85.845 65.5997 86.0035 67.0615 86.609C68.5233 87.2145 69.7727 88.2398 70.6518 89.5554C71.5308 90.871 72 92.4178 72 94C72 96.1217 71.1571 98.1566 69.6569 99.6569C68.1566 101.157 66.1217 102 64 102V102ZM64 90C63.2089 90 62.4355 90.2346 61.7777 90.6741C61.1199 91.1136 60.6072 91.7384 60.3045 92.4693C60.0017 93.2002 59.9225 94.0044 60.0769 94.7804C60.2312 95.5563 60.6122 96.269 61.1716 96.8284C61.731 97.3878 62.4437 97.7688 63.2196 97.9231C63.9956 98.0775 64.7998 97.9983 65.5307 97.6955C66.2616 97.3928 66.8864 96.8801 67.3259 96.2223C67.7654 95.5645 68 94.7911 68 94C68 92.9391 67.5786 91.9217 66.8284 91.1716C66.0783 90.4214 65.0609 90 64 90Z" fill="#313131"/>
</g>
<defs>
<clipPath id="clip0_67_65">
<rect width="128" height="128" fill="white"/>
</clipPath>
</defs>
</svg>
