<svg width="62" height="58" viewBox="0 0 62 58" fill="none" xmlns="http://www.w3.org/2000/svg">
<path d="M61 0H1C0.734784 0 0.48043 0.105357 0.292893 0.292893C0.105357 0.48043 0 0.734784 0 1V47C0 47.2652 0.105357 47.5196 0.292893 47.7071C0.48043 47.8946 0.734784 48 1 48H38.533C38.6767 48.2159 38.833 48.4272 39 48.6356V57C38.9998 57.1585 39.0374 57.3148 39.1096 57.4559C39.1818 57.597 39.2865 57.7189 39.4151 57.8116C39.5437 57.9042 39.6925 57.9649 39.8493 57.9887C40.006 58.0124 40.1661 57.9986 40.3164 57.9482L46 56.0537L51.6836 57.9482C51.7855 57.9827 51.8924 58.0002 52 58C52.1314 58.0001 52.2615 57.9744 52.3828 57.9241C52.5042 57.8739 52.6145 57.8003 52.7074 57.7074C52.8003 57.6145 52.8739 57.5042 52.9241 57.3828C52.9744 57.2615 53.0001 57.1314 53 57V48.6361C53.1678 48.4266 53.3239 48.2155 53.4672 48H61C61.2652 48 61.5196 47.8946 61.7071 47.7071C61.8946 47.5196 62 47.2652 62 47V1C62 0.734784 61.8946 0.48043 61.7071 0.292893C61.5196 0.105357 61.2652 0 61 0V0ZM38.8925 37.4772C38.7906 37.608 38.6948 37.7438 38.6002 37.8805C38.5592 37.9396 38.5161 37.9967 38.4765 38.0568C38.3721 38.2155 38.275 38.3795 38.1804 38.5453C38.1561 38.5879 38.1293 38.6285 38.1057 38.6715C37.8715 39.0975 37.6722 39.5418 37.51 40H12.917C12.7071 38.7723 12.1214 37.64 11.2407 36.7593C10.36 35.8786 9.22769 35.2929 8 35.083V12.917C9.22769 12.7071 10.36 12.1214 11.2407 11.2407C12.1214 10.36 12.7071 9.22769 12.917 8H49.083C49.2929 9.22769 49.8786 10.36 50.7593 11.2407C51.64 12.1214 52.7723 12.7071 54 12.917V35.083C53.1665 35.2225 52.3723 35.5377 51.67 36.0078L51.666 36.0048L51.6349 35.9818C51.4273 35.8151 51.2136 35.659 50.9937 35.5134C50.9219 35.4655 50.8471 35.4234 50.7737 35.3777C50.6128 35.2769 50.4509 35.1784 50.2846 35.0883C50.1946 35.0396 50.1031 34.9958 50.0119 34.9503C49.8568 34.8729 49.7007 34.7984 49.5419 34.7303C49.4435 34.6881 49.3442 34.649 49.2443 34.6103C49.0868 34.5494 48.9277 34.4931 48.7671 34.4412C48.6644 34.408 48.5616 34.3755 48.4577 34.346C48.2928 34.2994 48.1263 34.2595 47.9587 34.2222C47.8569 34.1996 47.7559 34.1753 47.6531 34.1562C47.4692 34.122 47.2831 34.0971 47.0967 34.0744C47.0088 34.0637 46.9219 34.0488 46.8336 34.0406C46.5577 34.0151 46.28 34 46 34C45.7511 34 45.5044 34.0112 45.26 34.0312C45.1785 34.0378 45.099 34.0512 45.0181 34.0598C44.8559 34.0776 44.6936 34.0949 44.5338 34.1212C44.4382 34.1369 44.3447 34.1589 44.2501 34.1776C44.1077 34.2058 43.9653 34.2332 43.8252 34.2676C43.726 34.2922 43.629 34.3224 43.5311 34.3502C43.3981 34.3881 43.2653 34.4258 43.1347 34.4696C43.0365 34.5026 42.9404 34.5396 42.8438 34.5761C42.717 34.6236 42.5907 34.6715 42.4665 34.7245C42.3711 34.7652 42.2777 34.8092 42.184 34.8532C42.0621 34.9103 41.9411 34.9686 41.822 35.031C41.7312 35.0786 41.642 35.1286 41.5529 35.1793C41.4353 35.2461 41.3192 35.3148 41.2049 35.3867C41.1193 35.4406 41.0349 35.496 40.9513 35.5527C40.838 35.6294 40.7267 35.7087 40.6174 35.7904C40.5381 35.8496 40.4595 35.9095 40.3822 35.9712C40.2727 36.0586 40.1662 36.1491 40.0609 36.2412C39.9892 36.3042 39.9176 36.367 39.8479 36.4322C39.7419 36.5313 39.6397 36.6343 39.5385 36.7386C39.4754 36.8037 39.4115 36.8679 39.3503 36.935C39.2471 37.0479 39.1487 37.165 39.0512 37.2836C38.998 37.3486 38.9437 37.4114 38.8925 37.4772ZM51 55.6123L46.3164 54.0523C46.1111 53.9832 45.8889 53.9832 45.6836 54.0523L41 55.6123V50.4834C41.05 50.5166 41.1052 50.5394 41.1555 50.5716C41.4258 50.7447 41.7052 50.9032 41.9925 51.0463C42.0644 51.0821 42.1332 51.1228 42.2061 51.1563C42.5605 51.3207 42.9252 51.4618 43.2979 51.5787C43.3859 51.6064 43.4758 51.6264 43.5646 51.6515C43.8649 51.7359 44.1693 51.8047 44.4767 51.8575C44.5867 51.8764 44.6956 51.896 44.8067 51.9108C45.5979 52.0292 46.4024 52.0292 47.1936 51.9108C47.3047 51.8959 47.4136 51.8763 47.5236 51.8574C47.8303 51.8047 48.134 51.736 48.4336 51.6518C48.5236 51.6266 48.6136 51.6064 48.7026 51.5785C49.0747 51.4617 49.4388 51.3208 49.7926 51.1567C49.867 51.1222 49.9374 51.0805 50.0107 51.044C50.2959 50.9018 50.5734 50.7444 50.8418 50.5726C50.8929 50.5399 50.9493 50.5168 50.9998 50.4826L51 55.6123ZM52.0488 46.5078C51.8211 46.9081 51.553 47.2841 51.2488 47.6299C50.5929 48.3757 49.7857 48.9731 48.8808 49.3824C47.976 49.7917 46.9943 50.0035 46.0012 50.0037C45.0081 50.0039 44.0263 49.7924 43.1213 49.3834C42.2163 48.9745 41.4088 48.3773 40.7527 47.6318C39.633 46.3473 39.0112 44.7039 39 43C39.0011 42.4099 39.0745 41.8222 39.2188 41.25C39.6068 39.7468 40.4835 38.4152 41.7111 37.4648C42.9387 36.5144 44.4475 35.9991 46 36C46.2308 36 46.4599 36.0111 46.6874 36.0334C48.0514 36.1671 49.3461 36.6985 50.4106 37.5617C50.5881 37.7052 50.7595 37.8578 50.9248 38.0195C51.5843 38.6702 52.1074 39.4457 52.4637 40.3009C52.82 41.156 53.0024 42.0736 53 43C53.0051 44.2337 52.6765 45.4457 52.0488 46.5078V46.5078ZM60 46H54.4834C54.5516 45.8079 54.6084 45.6118 54.6634 45.4153C54.6734 45.3807 54.6858 45.3472 54.6951 45.3124C54.7824 44.9782 54.8504 44.6392 54.8987 44.2971C54.9107 44.2153 54.9208 44.1337 54.9305 44.0515C55.0772 42.8918 54.9917 41.7145 54.6791 40.5881C54.3665 39.4617 53.8329 38.4087 53.1095 37.4905C53.689 37.1721 54.3388 37.0035 55 37C55.2652 37 55.5196 36.8946 55.7071 36.7071C55.8946 36.5196 56 36.2652 56 36V12C56 11.7348 55.8946 11.4804 55.7071 11.2929C55.5196 11.1054 55.2652 11 55 11C53.9395 10.999 52.9226 10.5772 52.1727 9.82729C51.4228 9.07736 51.001 8.06055 51 7C51 6.73478 50.8946 6.48043 50.7071 6.29289C50.5196 6.10536 50.2652 6 50 6H12C11.7348 6 11.4804 6.10536 11.2929 6.29289C11.1054 6.48043 11 6.73478 11 7C10.999 8.06055 10.5772 9.07736 9.82729 9.82729C9.07736 10.5772 8.06055 10.999 7 11C6.73478 11 6.48043 11.1054 6.29289 11.2929C6.10536 11.4804 6 11.7348 6 12V36C6 36.2652 6.10536 36.5196 6.29289 36.7071C6.48043 36.8946 6.73478 37 7 37C8.06055 37.001 9.07736 37.4228 9.82729 38.1727C10.5772 38.9226 10.999 39.9395 11 41C11 41.2652 11.1054 41.5196 11.2929 41.7071C11.4804 41.8946 11.7348 42 12 42H37.0625C37.0233 42.3319 37.0024 42.6658 37 43C37.0025 43.3508 37.0257 43.7012 37.0693 44.0493C37.0793 44.1331 37.0893 44.2161 37.1016 44.2993C37.1495 44.6383 37.2167 44.9744 37.303 45.3057C37.3143 45.3483 37.3298 45.3893 37.3417 45.4317C37.3955 45.6225 37.4503 45.8131 37.5166 45.9999H2V2H60V46Z" fill="#313131"/>
<path d="M23 19H39C39.2652 19 39.5196 18.8946 39.7071 18.7071C39.8946 18.5196 40 18.2652 40 18V12C40 11.7348 39.8946 11.4804 39.7071 11.2929C39.5196 11.1054 39.2652 11 39 11H23C22.7348 11 22.4804 11.1054 22.2929 11.2929C22.1054 11.4804 22 11.7348 22 12V18C22 18.2652 22.1054 18.5196 22.2929 18.7071C22.4804 18.8946 22.7348 19 23 19ZM24 13H38V17H24V13Z" fill="#313131"/>
<path d="M21 25H41C41.2652 25 41.5196 24.8946 41.7071 24.7071C41.8946 24.5196 42 24.2652 42 24C42 23.7348 41.8946 23.4804 41.7071 23.2929C41.5196 23.1054 41.2652 23 41 23H21C20.7348 23 20.4804 23.1054 20.2929 23.2929C20.1054 23.4804 20 23.7348 20 24C20 24.2652 20.1054 24.5196 20.2929 24.7071C20.4804 24.8946 20.7348 25 21 25Z" fill="#313131"/>
<path d="M45 30C45 29.7348 44.8946 29.4804 44.7071 29.2929C44.5196 29.1054 44.2652 29 44 29H18C17.7348 29 17.4804 29.1054 17.2929 29.2929C17.1054 29.4804 17 29.7348 17 30C17 30.2652 17.1054 30.5196 17.2929 30.7071C17.4804 30.8946 17.7348 31 18 31H44C44.2652 31 44.5196 30.8946 44.7071 30.7071C44.8946 30.5196 45 30.2652 45 30Z" fill="#313131"/>
</svg>
