<svg width="58" height="40" viewBox="0 0 58 40" fill="none" xmlns="http://www.w3.org/2000/svg">
<path d="M57.2973 5.75118C57.2966 4.22424 56.6945 2.75821 55.6197 1.66667C54.521 0.59893 53.0454 0.00072241 51.5085 0H5.7888C4.25187 0.00072241 2.77625 0.59893 1.67757 1.66667C0.602849 2.75821 0.000727136 4.22424 0 5.75118V34.2254C0.000834988 35.7637 0.612092 37.2398 1.7012 38.3333C2.79988 39.4011 4.2755 39.9993 5.81243 40H51.3904C52.9273 39.9993 54.4029 39.4011 55.5016 38.3333C56.5907 37.2398 57.202 35.7637 57.2028 34.2254L57.2973 5.75118ZM38.7259 19.9765L54.5801 4.34272C54.8136 4.81791 54.9348 5.33977 54.9345 5.86854V34.2254C54.9312 34.7462 54.8101 35.2596 54.5801 35.7277L38.7259 19.9765ZM51.3904 2.23005C51.9146 2.23332 52.4314 2.35366 52.9025 2.58216L28.5896 26.7371L4.27662 2.58216C4.74774 2.35366 5.26455 2.23332 5.7888 2.23005H51.3904ZM2.59905 35.7277C2.36905 35.2596 2.24793 34.7462 2.24464 34.2254V5.75118C2.26162 5.26213 2.38239 4.78217 2.59905 4.34272L18.4533 20.0939L2.59905 35.7277ZM5.7888 37.7465C5.26455 37.7432 4.74774 37.6229 4.27662 37.3944L20.1308 21.6432L27.7626 29.2254C27.8724 29.3354 28.0031 29.4227 28.1471 29.4823C28.291 29.5419 28.4454 29.5725 28.6014 29.5725C28.7573 29.5725 28.9118 29.5419 29.0557 29.4823C29.1997 29.4227 29.3304 29.3354 29.4402 29.2254L37.0719 21.6432L52.9262 37.3944C52.455 37.6229 51.9382 37.7432 51.414 37.7465H5.7888Z" fill="#FFF5D0"/>
</svg>
