<svg width="285" height="68" viewBox="0 0 285 68" fill="none" xmlns="http://www.w3.org/2000/svg">
<path d="M96 68V50H98.4573V57.8353H102.09L107.688 50H110.687L104.056 58.8676L111 68H107.909L102.033 59.9265H98.4715V68H96Z" fill="#2B2F70"/>
<path d="M121.75 50L128 68H125.805L124.087 62.9176H116.86L115.189 68H113L119.179 50H121.75ZM117.549 60.8529H123.398L120.456 52.0912L117.549 60.8529Z" fill="#2B2F70"/>
<path d="M132 68V50H138.482C140.262 50 141.627 50.4853 142.575 51.4559C143.061 51.9853 143.438 52.6227 143.682 53.3256C143.926 54.0286 144.032 54.7809 143.992 55.5323C144.028 56.2913 143.921 57.0504 143.677 57.7613C143.433 58.4722 143.058 59.1194 142.575 59.6618C141.639 60.6676 140.202 61.1706 138.266 61.1706H134.065V68H132ZM134.071 59.0794H138.428C139.376 59.1733 140.319 58.8497 141.051 58.1794C141.347 57.8243 141.574 57.4065 141.718 56.9513C141.863 56.4962 141.921 56.0134 141.891 55.5323C141.932 55.0526 141.88 54.5689 141.739 54.1127C141.599 53.6565 141.372 53.2383 141.075 52.8853C140.547 52.336 139.664 52.0647 138.428 52.0647H134.071V59.0794Z" fill="#2B2F70"/>
<path d="M147 50H149.408V56.8294H154.307C156.553 56.8294 158.233 57.2993 159.332 58.2323C160.431 59.1654 160.991 60.5816 160.991 62.4676C161.037 63.2219 160.911 63.9769 160.619 64.6806C160.328 65.3842 159.879 66.02 159.304 66.5441C158.203 67.5191 156.621 68.0044 154.559 68H147V50ZM154.545 65.8823C156.007 65.8823 157.036 65.611 157.638 65.0617C158.247 64.3093 158.576 63.3884 158.576 62.4411C158.576 61.4939 158.247 60.5731 157.638 59.8206C157.015 59.2051 156 58.8941 154.573 58.8941H149.436V65.8823H154.545Z" fill="#2B2F70"/>
<path d="M164 68V50H178V52.1177H166.542V57.8618H177.595V59.9265H166.542V65.8823H177.919V68H164Z" fill="#2B2F70"/>
<path d="M182 68V50H188.479C190.281 50 191.626 50.4831 192.569 51.4559C193.055 51.9847 193.434 52.6219 193.68 53.3248C193.925 54.0278 194.032 54.7804 193.992 55.5323C194.029 56.2919 193.921 57.0516 193.676 57.7627C193.431 58.4739 193.054 59.1207 192.569 59.6618C191.64 60.6676 190.203 61.1706 188.257 61.1706H184.054V68H182ZM184.072 59.0794H188.431C189.38 59.1733 190.323 58.8497 191.056 58.1794C191.352 57.8243 191.579 57.4065 191.723 56.9513C191.868 56.4962 191.927 56.0134 191.896 55.5323C191.937 55.0526 191.885 54.5689 191.744 54.1127C191.604 53.6565 191.377 53.2383 191.08 52.8853C190.545 52.336 189.662 52.0647 188.431 52.0647H184.072V59.0794Z" fill="#2B2F70"/>
<path d="M206.868 65.9933C208.126 66.0832 209.374 65.7015 210.385 64.9175C211.223 64.16 211.79 63.1311 211.995 61.9973L214 62.3302C213.778 63.9919 212.942 65.4986 211.668 66.5312C210.269 67.5579 208.58 68.0717 206.868 67.9913C205.803 68.0437 204.739 67.8582 203.749 67.4472C202.76 67.0362 201.866 66.4094 201.13 65.6091C199.711 64.0038 199.001 61.8094 199.001 59.0258C198.982 57.7379 199.174 56.456 199.569 55.2347C199.906 54.185 200.445 53.2176 201.155 52.3914C201.848 51.62 202.703 51.0241 203.653 50.6495C204.675 50.2217 205.766 50.0042 206.868 50.0091C208.58 49.9238 210.271 50.438 211.668 51.4692C212.297 51.9779 212.822 52.6113 213.212 53.3325C213.603 54.0537 213.852 54.8483 213.944 55.6702L211.945 56.0032C211.724 54.9036 211.168 53.9069 210.36 53.1598C209.381 52.3247 208.131 51.912 206.868 52.0072C206.009 51.9916 205.157 52.1663 204.369 52.5195C203.667 52.8423 203.05 53.334 202.567 53.9539C202.052 54.6165 201.678 55.3847 201.469 56.2081C201.213 57.1321 201.088 58.09 201.099 59.0515C201.015 60.8617 201.541 62.6458 202.586 64.0977C203.111 64.7349 203.77 65.2375 204.513 65.5663C205.256 65.8952 206.062 66.0413 206.868 65.9933V65.9933Z" fill="#2B2F70"/>
<path d="M215 52.1177V50H232V52.1177H224.751V68H222.278V52.1177H215Z" fill="#2B2F70"/>
<path d="M234 68V50H241.016C242.949 50 244.427 50.4853 245.45 51.4559C245.977 51.9847 246.387 52.6219 246.653 53.3248C246.919 54.0278 247.034 54.7804 246.991 55.5324C247.031 56.292 246.915 57.0517 246.649 57.7628C246.384 58.4739 245.976 59.1207 245.45 59.6618C244.44 60.6677 242.884 61.1706 240.782 61.1706H236.23V68H234ZM236.243 59.0794H240.964C241.991 59.1733 243.012 58.8497 243.805 58.1794C244.128 57.8258 244.376 57.4083 244.534 56.9529C244.692 56.4975 244.756 56.014 244.722 55.5324C244.765 55.0522 244.708 54.5682 244.554 54.1121C244.401 53.656 244.154 53.238 243.831 52.8853C243.259 52.336 242.303 52.0647 240.964 52.0647H236.243V59.0794Z" fill="#2B2F70"/>
<path d="M259.014 67.9992C257.737 68.0062 256.47 67.788 255.282 67.3564C254.209 66.9664 253.239 66.3704 252.436 65.608C251.632 64.789 251.019 63.8262 250.636 62.7797C250.198 61.561 249.984 60.2836 250.001 59C249.982 57.7331 250.197 56.4724 250.636 55.2718C251.019 54.2253 251.632 53.2625 252.436 52.4435C253.225 51.6534 254.198 51.0381 255.282 50.6437C256.467 50.203 257.736 49.9844 259.014 50.0009C260.283 49.9839 261.543 50.2025 262.718 50.6437C263.806 51.0316 264.781 51.6478 265.564 52.4435C266.369 53.2625 266.981 54.2253 267.364 55.2718C267.8 56.4732 268.015 57.7334 267.999 59C268.016 60.292 267.802 61.5778 267.364 62.8054C266.981 63.8519 266.369 64.8147 265.564 65.6337C264.766 66.4016 263.795 66.9984 262.718 67.3821C261.538 67.8056 260.28 68.0151 259.014 67.9992ZM259.014 65.9936C259.935 66.0443 260.855 65.8963 261.703 65.5616C262.551 65.2268 263.302 64.7145 263.897 64.0653C265.032 62.5832 265.641 60.8138 265.641 59C265.641 57.1863 265.032 55.4169 263.897 53.9348C263.302 53.2856 262.551 52.7733 261.703 52.4385C260.855 52.1038 259.935 51.9558 259.014 52.0064C258.094 51.9627 257.176 52.1138 256.329 52.4481C255.483 52.7824 254.731 53.291 254.131 53.9348C253 55.4184 252.393 57.1871 252.393 59C252.393 60.8129 253 62.5817 254.131 64.0653C254.731 64.7091 255.483 65.2177 256.329 65.552C257.176 65.8862 258.094 66.0373 259.014 65.9936V65.9936Z" fill="#2B2F70"/>
<path d="M282.892 68V52.4983L273.458 68H271V49.9191H273.108V65.2081L282.366 49.9191H285V68H282.892ZM273.884 45H275.667C275.759 45.4259 275.952 45.8199 276.227 46.1451C276.502 46.4703 276.85 46.7161 277.239 46.8595C277.628 47.0029 278.044 47.0393 278.45 46.9652C278.855 46.8911 279.236 46.709 279.558 46.4358C279.89 46.0405 280.077 45.5304 280.083 45H281.866C281.88 45.4932 281.798 45.9841 281.625 46.4418C281.452 46.8996 281.191 47.314 280.859 47.659C280.229 48.2971 279.234 48.6162 277.875 48.6162C276.794 48.7093 275.72 48.3677 274.866 47.659C274.541 47.3096 274.287 46.8938 274.118 46.4367C273.949 45.9796 273.869 45.4908 273.884 45V45Z" fill="#2B2F70"/>
<path d="M116.976 0L132 39H126.728L122.589 28.0074H105.241L101.216 39H96L110.835 0H116.976ZM106.885 23.5147H120.945L113.858 4.53089L106.885 23.5147Z" fill="#2C2E71"/>
<path d="M138 39V0H153.125C157.285 0 160.471 1.05147 162.683 3.15441C164.894 5.25736 166 8.20148 166 11.9868C166 15.7721 164.894 18.7544 162.683 20.9338C160.471 23.1132 157.116 24.1966 152.618 24.1838H142.835V39H138ZM142.835 19.6721H153.012C155.823 19.6721 157.866 19.0221 159.141 17.7221C160.415 16.4221 161.071 14.5294 161.108 12.0441C161.108 9.40589 160.471 7.49412 159.197 6.30883C157.922 5.12354 155.861 4.53089 153.012 4.53089H142.835V19.6721Z" fill="#2C2E71"/>
<path d="M170 4.58824V0H203V4.58824H188.929V39H184.127V4.58824H170Z" fill="#2C2E71"/>
<path d="M209 39V0H237V4.58824H214.08V17.0147H236.232V21.4882H214.08V34.3926H236.823V39H209Z" fill="#2C2E71"/>
<path d="M263.18 35.4441L250.475 4.64559V39H246V0H253.458L265.61 29.5941L277.542 0H285V39H280.305V4.64559L267.599 35.4441H263.18Z" fill="#2C2E71"/>
<path d="M28.5008 26L57 68H0L28.5008 26Z" fill="#2C2E71"/>
<path d="M91 68H63.7168L32 20.408L45.5574 0L91 68Z" fill="url(#paint0_linear_3_24)"/>
<defs>
<linearGradient id="paint0_linear_3_24" x1="61.5" y1="0" x2="61.5" y2="68" gradientUnits="userSpaceOnUse">
<stop stop-color="#DBC989"/>
<stop offset="0.5" stop-color="#FFF5D0"/>
<stop offset="1" stop-color="#DBC989"/>
</linearGradient>
</defs>
</svg>
