<svg width="70" height="70" viewBox="0 0 70 70" fill="none" xmlns="http://www.w3.org/2000/svg">
<circle cx="35" cy="35" r="35" fill="#2B2F70"/>
<path d="M23.3587 33.5944L37.9179 18.3732C38.3949 17.8748 39.1672 17.8756 39.6434 18.3758C40.1193 18.8758 40.1181 19.686 39.641 20.1848L25.9484 34.5001L39.6415 48.8153C40.1185 49.3142 40.1197 50.1238 39.6439 50.6239C39.4052 50.8746 39.0925 51 38.7797 51C38.4678 51 38.1563 50.8755 37.918 50.6265L23.3587 35.4056C23.1289 35.166 23 34.8399 23 34.5001C23 34.1603 23.1293 33.8345 23.3587 33.5944Z" fill="#FFF5D0"/>
<path d="M23.3587 33.5944L37.9179 18.3732C38.3949 17.8748 39.1672 17.8756 39.6434 18.3758C40.1193 18.8758 40.1181 19.686 39.641 20.1848L25.9484 34.5001L39.6415 48.8153C40.1185 49.3142 40.1197 50.1238 39.6439 50.6239C39.4052 50.8746 39.0925 51 38.7797 51C38.4678 51 38.1563 50.8755 37.918 50.6265L23.3587 35.4056C23.1289 35.166 23 34.8399 23 34.5001C23 34.1603 23.1293 33.8345 23.3587 33.5944Z" stroke="white"/>
</svg>
