<svg width="70" height="70" viewBox="0 0 70 70" fill="none" xmlns="http://www.w3.org/2000/svg">
<circle cx="35" cy="35" r="33.5" transform="rotate(-180 35 35)" stroke="#2B2F70" stroke-width="3"/>
<path d="M46.6413 36.4056L32.0821 51.6268C31.6051 52.1252 30.8328 52.1244 30.3566 51.6242C29.8807 51.1242 29.8819 50.314 30.359 49.8152L44.0516 35.4999L30.3585 21.1847C29.8815 20.6858 29.8803 19.8762 30.3561 19.3761C30.5948 19.1254 30.9075 19 31.2203 19C31.5322 19 31.8437 19.1245 32.082 19.3735L46.6413 34.5944C46.8711 34.834 47 35.1601 47 35.4999C47 35.8397 46.8707 36.1655 46.6413 36.4056Z" fill="#2B2F70"/>
<path d="M46.6413 36.4056L32.0821 51.6268C31.6051 52.1252 30.8328 52.1244 30.3566 51.6242C29.8807 51.1242 29.8819 50.314 30.359 49.8152L44.0516 35.4999L30.3585 21.1847C29.8815 20.6858 29.8803 19.8762 30.3561 19.3761C30.5948 19.1254 30.9075 19 31.2203 19C31.5322 19 31.8437 19.1245 32.082 19.3735L46.6413 34.5944C46.8711 34.834 47 35.1601 47 35.4999C47 35.8397 46.8707 36.1655 46.6413 36.4056Z" stroke="white"/>
</svg>
