<svg width="70" height="70" viewBox="0 0 70 70" fill="none" xmlns="http://www.w3.org/2000/svg">
<circle cx="35" cy="35" r="35" fill="#2B2F70"/>
<path d="M50.3974 43.3878C50.2155 43.0239 49.6697 42.7965 48.8965 42.3416C48.0778 41.8868 44.1662 39.7033 43.4385 39.3849C42.7107 39.0665 42.1649 38.9301 41.5736 39.7033C40.9824 40.4766 39.2995 42.2507 38.7992 42.7965C38.2988 43.2969 37.7985 43.3423 37.0253 42.933C36.2066 42.4781 33.614 41.4774 30.6576 38.5207C28.338 36.2463 26.837 33.4715 26.3822 32.6073C25.9273 31.743 26.3822 31.3336 26.837 30.9697C27.2464 30.6058 27.7012 30.06 28.156 29.6051C28.6109 29.1502 28.7473 28.8318 29.0657 28.286C29.3841 27.7401 29.2476 27.2852 29.0657 26.8304C28.8838 26.421 27.4283 22.2816 26.837 20.5986C26.2457 18.961 25.5635 19.143 25.0632 19.0975C24.6083 19.052 24.017 19.0065 23.4712 19.0065C22.9254 18.961 22.0158 19.143 21.2426 19.9162C20.4693 20.6895 18.2406 22.5545 18.0132 26.6029C17.7858 30.6513 20.5603 34.6997 20.9242 35.2456C21.288 35.7914 26.2457 44.3431 34.2963 48.346C36.2066 49.3012 37.7076 49.8926 38.8901 50.302C40.8004 51.0298 42.6198 51.0297 44.0297 50.8933C45.6217 50.7568 48.9874 49.1648 49.7607 47.2998C50.4884 45.3893 50.5794 43.7517 50.3974 43.3878Z" fill="#FFF5D0"/>
</svg>
