<svg width="70" height="70" viewBox="0 0 70 70" fill="none" xmlns="http://www.w3.org/2000/svg">
<circle cx="35" cy="35" r="35" fill="#2B2F70"/>
<path d="M42 29C42 25.6915 39.084 23 35.5 23C31.916 23 29 25.6915 29 29C29 32.3085 31.916 35 35.5 35C39.084 35 42 32.3085 42 29Z" fill="#FFF5D0"/>
<path d="M35.4973 54L37.9752 50.7242C40.5616 47.2637 49 35.4733 49 29.0271C49.0006 20.6368 43.5756 15 35.5003 15C27.425 15 22 20.6368 22 29.0277C22 35.9694 31.9092 49.2408 33.0363 50.7272L35.4973 54ZM26.9745 29.1137C26.9745 24.3776 30.799 20.5241 35.5003 20.5241C40.2016 20.5241 44.0261 24.3776 44.0261 29.1137C44.0261 33.8497 40.2016 37.7033 35.5003 37.7033C30.799 37.7033 26.9745 33.8503 26.9745 29.1137Z" fill="#FFF5D0"/>
</svg>
