<?xml version="1.0" encoding="UTF-8"?> <svg xmlns="http://www.w3.org/2000/svg" width="128" height="30" viewBox="0 0 128 30" fill="none"><g clip-path="url(#clip0_3_24)"><path d="M43.0289 30V22.0588H44.1303V25.5156H45.7584L48.2677 22.0588H49.6117L46.6395 25.971L49.7521 30H48.3666L45.7329 26.4381H44.1366V30H43.0289Z" fill="#2B2F70"></path><path d="M54.5707 22.0588L57.3718 30H56.388L55.6178 27.7578H52.3788L51.6297 30H50.6486L53.418 22.0588H54.5707ZM52.6874 26.8469H55.3092L53.9904 22.9814L52.6874 26.8469Z" fill="#2B2F70"></path><path d="M59.1647 30V22.0588H62.07C62.8681 22.0588 63.4796 22.2729 63.9047 22.7011C64.1222 22.9347 64.2914 23.2159 64.4008 23.526C64.5103 23.8361 64.5576 24.168 64.5395 24.4996C64.5559 24.8344 64.5079 25.1693 64.3986 25.4829C64.2893 25.7966 64.1211 26.0821 63.9047 26.3214C63.485 26.7651 62.8412 26.987 61.9732 26.987H60.0901V30H59.1647ZM60.0928 26.0644H62.0458C62.4706 26.1059 62.8932 25.9631 63.2214 25.6674C63.354 25.5107 63.4558 25.3264 63.5205 25.1256C63.5853 24.9248 63.6116 24.7118 63.598 24.4996C63.6162 24.2879 63.593 24.0745 63.53 23.8732C63.4669 23.672 63.3654 23.4875 63.2321 23.3317C62.9954 23.0894 62.6 22.9697 62.0458 22.9697H60.0928V26.0644Z" fill="#2B2F70"></path><path d="M65.8879 22.0588H66.9671V25.0718H69.1629C70.1699 25.0718 70.9228 25.2791 71.4153 25.6907C71.9078 26.1024 72.1587 26.7272 72.1587 27.5592C72.1797 27.892 72.1229 28.2251 71.9924 28.5355C71.8619 28.846 71.6607 29.1265 71.4027 29.3577C70.9092 29.7878 70.2002 30.0019 69.2759 30H65.8879V22.0588ZM69.2696 29.0657C69.9252 29.0657 70.3863 28.946 70.6561 28.7037C70.9288 28.3717 71.0766 27.9654 71.0766 27.5476C71.0766 27.1297 70.9288 26.7234 70.6561 26.3914C70.3769 26.1199 69.9221 25.9827 69.2821 25.9827H66.9796V29.0657H69.2696Z" fill="#2B2F70"></path><path d="M73.5076 30V22.0588H79.7827V22.9931H74.647V25.5272H79.601V26.4381H74.647V29.0657H79.7463V30H73.5076Z" fill="#2B2F70"></path><path d="M81.5756 30V22.0588H84.4797C85.2872 22.0588 85.8901 22.272 86.3127 22.7011C86.5308 22.9344 86.7006 23.2155 86.8106 23.5257C86.9206 23.8358 86.9683 24.1678 86.9506 24.4996C86.9671 24.8347 86.9189 25.1698 86.8091 25.4836C86.6992 25.7973 86.5301 26.0827 86.3127 26.3214C85.8964 26.7651 85.2522 26.987 84.3801 26.987H82.4961V30H81.5756ZM82.5041 26.0644H84.4582C84.8832 26.1059 85.3061 25.9631 85.6344 25.6674C85.7671 25.5107 85.869 25.3264 85.9337 25.1256C85.9985 24.9248 86.0249 24.7118 86.0112 24.4996C86.0294 24.2879 86.0063 24.0745 85.9432 23.8732C85.8801 23.672 85.7785 23.4875 85.6452 23.3317C85.4056 23.0894 85.01 22.9697 84.4582 22.9697H82.5041V26.0644Z" fill="#2B2F70"></path><path d="M92.7217 29.1147C93.2858 29.1544 93.8451 28.986 94.298 28.6401C94.6737 28.3059 94.928 27.8519 95.0198 27.3517L95.9185 27.4986C95.819 28.2317 95.4441 28.8965 94.8732 29.352C94.246 29.805 93.489 30.0316 92.7217 29.9962C92.2444 30.0193 91.7677 29.9374 91.324 29.7561C90.8803 29.5748 90.4799 29.2982 90.1499 28.9452C89.5138 28.237 89.1958 27.2689 89.1958 26.0408C89.1874 25.4726 89.2734 24.907 89.4502 24.3683C89.6013 23.9051 89.8431 23.4783 90.1609 23.1138C90.4718 22.7735 90.855 22.5106 91.2809 22.3454C91.7387 22.1566 92.2281 22.0607 92.7217 22.0629C93.4893 22.0252 94.2469 22.2521 94.8732 22.707C95.155 22.9314 95.3903 23.2109 95.5655 23.529C95.7407 23.8472 95.8522 24.1978 95.8936 24.5604L94.9976 24.7073C94.8983 24.2222 94.6492 23.7825 94.2869 23.4529C93.8484 23.0844 93.288 22.9024 92.7217 22.9443C92.3369 22.9375 91.9551 23.0145 91.6017 23.1703C91.2872 23.3128 91.0104 23.5297 90.7942 23.8032C90.5633 24.0955 90.3955 24.4344 90.302 24.7977C90.187 25.2053 90.1311 25.6279 90.1361 26.0521C90.0985 26.8508 90.3341 27.6378 90.8025 28.2784C91.0377 28.5595 91.3333 28.7813 91.6662 28.9263C91.9991 29.0714 92.3604 29.1359 92.7217 29.1147V29.1147Z" fill="#2B2F70"></path><path d="M96.3667 22.9931V22.0588H103.986V22.9931H100.737V30H99.6286V22.9931H96.3667Z" fill="#2B2F70"></path><path d="M104.883 30V22.0588H108.027C108.894 22.0588 109.557 22.2729 110.015 22.7011C110.251 22.9344 110.435 23.2155 110.554 23.5257C110.673 23.8358 110.725 24.1678 110.706 24.4996C110.724 24.8347 110.672 25.1698 110.553 25.4836C110.434 25.7973 110.251 26.0827 110.015 26.3214C109.562 26.7651 108.865 26.987 107.923 26.987H105.883V30H104.883ZM105.888 26.0644H108.004C108.464 26.1059 108.922 25.9631 109.278 25.6674C109.423 25.5114 109.534 25.3272 109.604 25.1263C109.675 24.9254 109.704 24.7121 109.689 24.4996C109.708 24.2877 109.682 24.0742 109.613 23.873C109.545 23.6718 109.434 23.4873 109.289 23.3318C109.033 23.0894 108.605 22.9697 108.004 22.9697H105.888V26.0644Z" fill="#2B2F70"></path><path d="M116.095 29.9996C115.522 30.0027 114.954 29.9065 114.422 29.716C113.941 29.544 113.506 29.2811 113.146 28.9447C112.786 28.5834 112.511 28.1586 112.339 27.6969C112.143 27.1592 112.047 26.5957 112.055 26.0294C112.046 25.4705 112.142 24.9143 112.339 24.3846C112.511 23.9229 112.786 23.4982 113.146 23.1369C113.5 22.7883 113.936 22.5168 114.422 22.3428C114.953 22.1484 115.522 22.052 116.095 22.0592C116.663 22.0517 117.228 22.1482 117.755 22.3428C118.242 22.5139 118.679 22.7858 119.031 23.1369C119.391 23.4982 119.666 23.9229 119.837 24.3846C120.033 24.9146 120.129 25.4706 120.122 26.0294C120.129 26.5994 120.033 27.1667 119.837 27.7082C119.666 28.17 119.391 28.5947 119.031 28.956C118.673 29.2948 118.237 29.5581 117.755 29.7274C117.226 29.9142 116.662 30.0067 116.095 29.9996ZM116.095 29.1148C116.507 29.1372 116.92 29.0719 117.3 28.9242C117.68 28.7765 118.017 28.5505 118.283 28.2641C118.792 27.6102 119.065 26.8296 119.065 26.0294C119.065 25.2292 118.792 24.4486 118.283 23.7948C118.017 23.5084 117.68 23.2823 117.3 23.1346C116.92 22.9869 116.507 22.9217 116.095 22.944C115.682 22.9247 115.271 22.9914 114.891 23.1389C114.512 23.2864 114.175 23.5107 113.906 23.7948C113.399 24.4493 113.127 25.2296 113.127 26.0294C113.127 26.8292 113.399 27.6096 113.906 28.2641C114.175 28.5481 114.512 28.7725 114.891 28.92C115.271 29.0675 115.682 29.1341 116.095 29.1148V29.1148Z" fill="#2B2F70"></path><path d="M126.797 30V23.161L122.569 30H121.467V22.0231H122.412V28.7683L126.562 22.0231H127.742V30H126.797ZM122.76 19.8529H123.559C123.6 20.0409 123.687 20.2147 123.81 20.3581C123.933 20.5016 124.089 20.61 124.263 20.6733C124.438 20.7366 124.624 20.7526 124.806 20.7199C124.988 20.6872 125.159 20.6069 125.303 20.4864C125.452 20.312 125.535 20.0869 125.538 19.8529H126.337C126.344 20.0705 126.307 20.2871 126.229 20.4891C126.152 20.691 126.035 20.8738 125.886 21.026C125.604 21.3076 125.158 21.4483 124.548 21.4483C124.064 21.4894 123.583 21.3387 123.2 21.026C123.054 20.8719 122.94 20.6884 122.864 20.4868C122.789 20.2851 122.753 20.0695 122.76 19.8529V19.8529Z" fill="#2B2F70"></path><path d="M52.4308 0L59.1647 17.2059H56.8015L54.9465 12.3562H47.1708L45.3667 17.2059H43.0289L49.678 0H52.4308ZM47.9077 10.3741H54.2096L51.0333 1.99892L47.9077 10.3741Z" fill="#2C2E71"></path><path d="M61.854 17.2059V0H68.6331C70.4979 0 71.926 0.463885 72.9172 1.39165C73.9085 2.31942 74.4041 3.6183 74.4041 5.28828C74.4041 6.95826 73.9085 8.27401 72.9172 9.23551C71.926 10.197 70.4223 10.675 68.4063 10.6693H64.0213V17.2059H61.854ZM64.0213 8.67885H68.5827C69.8427 8.67885 70.7583 8.39209 71.3296 7.81856C71.9008 7.24503 72.1948 6.41004 72.2116 5.31358C72.2116 4.14966 71.926 3.30623 71.3548 2.78331C70.7835 2.26038 69.8595 1.99892 68.5827 1.99892H64.0213V8.67885Z" fill="#2C2E71"></path><path d="M76.197 2.02422V0H90.9881V2.02422H84.6812V17.2059H82.5289V2.02422H76.197Z" fill="#2C2E71"></path><path d="M93.6774 17.2059V0H106.228V2.02422H95.9544V7.50649H105.883V9.4801H95.9544V15.1732H106.148V17.2059H93.6774Z" fill="#2C2E71"></path><path d="M117.962 15.6371L112.267 2.04952V17.2059H110.261V0H113.604L119.051 13.0562L124.399 0H127.742V17.2059H125.637V2.04952L119.943 15.6371H117.962Z" fill="#2C2E71"></path><path d="M12.7746 11.4706L25.5484 30H0L12.7746 11.4706Z" fill="#2C2E71"></path><path d="M40.7878 30H28.559L14.343 9.00354L20.4196 0L40.7878 30Z" fill="url(#paint0_linear_3_24)"></path></g><defs><linearGradient id="paint0_linear_3_24" x1="27.5654" y1="0" x2="27.5654" y2="30" gradientUnits="userSpaceOnUse"><stop stop-color="#DBC989"></stop><stop offset="0.5" stop-color="#FFF5D0"></stop><stop offset="1" stop-color="#DBC989"></stop></linearGradient><clipPath id="clip0_3_24"><rect width="127.742" height="30" fill="white"></rect></clipPath></defs></svg> 