<?xml version="1.0" encoding="UTF-8"?> <svg xmlns="http://www.w3.org/2000/svg" width="236" height="56" viewBox="0 0 236 56" fill="none"><path d="M23.0006 21L46 55H0L23.0006 21Z" fill="#FFFCF2"></path><path d="M73 55H51.2672L26 16.5065L36.8 0L73 55Z" fill="url(#paint0_linear_21_4)"></path><path d="M79.3382 55.1447V40.6391H81.2053V46.9533H83.9599L88.2136 40.6391H90.4973L85.4589 47.7853L90.7355 55.1447H88.3921L83.9166 48.6385H81.2107V55.1447H79.3382Z" fill="url(#paint1_linear_21_4)"></path><path d="M99.0244 40.6391L104.205 55.1447H102.397L100.965 51.049H94.9679L93.575 55.1447H91.7716L96.9082 40.6391H99.0244ZM95.5348 49.3851H100.398L97.954 42.3243L95.5348 49.3851Z" fill="url(#paint2_linear_21_4)"></path><path d="M108.349 55.1447V40.6391H113.38C114.78 40.6391 115.83 41.0284 116.562 41.8124C116.94 42.2385 117.235 42.752 117.425 43.3185C117.616 43.885 117.699 44.4915 117.668 45.0975C117.697 45.7096 117.613 46.3218 117.423 46.8949C117.232 47.4679 116.939 47.9892 116.562 48.4252C115.841 49.2358 114.724 49.6411 113.212 49.6411H109.945V55.1447H108.349ZM109.959 47.9559H113.342C114.081 48.033 114.816 47.7722 115.386 47.2306C115.616 46.9445 115.793 46.6078 115.905 46.241C116.018 45.8742 116.063 45.4851 116.04 45.0975C116.071 44.7109 116.031 44.321 115.922 43.9534C115.812 43.5858 115.636 43.2487 115.405 42.9643C114.99 42.5216 114.304 42.303 113.342 42.303H109.959V47.9559Z" fill="url(#paint3_linear_21_4)"></path><path d="M120.783 40.6391H122.569V46.1427H126.193C127.854 46.1427 129.093 46.5196 129.911 47.2733C130.729 48.0252 131.138 49.1665 131.138 50.6864C131.17 51.2939 131.074 51.9014 130.859 52.468C130.644 53.0346 130.314 53.5472 129.89 53.9715C129.072 54.7572 127.902 55.1483 126.38 55.1447H120.783V40.6391ZM126.369 53.4382C127.452 53.4382 128.213 53.2195 128.653 52.7769C128.905 52.4898 129.096 52.152 129.215 51.7848C129.333 51.4176 129.376 51.029 129.341 50.6437C129.366 50.264 129.316 49.8831 129.194 49.5239C129.072 49.1647 128.881 48.8345 128.632 48.5532C128.176 48.0572 127.421 47.8066 126.369 47.8066H122.569V53.4382H126.369Z" fill="url(#paint4_linear_21_4)"></path><path d="M134.252 55.1447V40.6391H143.577V42.3457H135.946V46.9747H143.307V48.6385H135.946V53.4382H143.523V55.1447H134.252Z" fill="url(#paint5_linear_21_4)"></path><path d="M147.722 55.1447V40.6391H153.313C154.854 40.6391 156.032 41.0302 156.848 41.8124C157.268 42.2385 157.595 42.752 157.806 43.3185C158.018 43.885 158.11 44.4915 158.076 45.0975C158.108 45.7096 158.015 46.3218 157.804 46.8949C157.592 47.4679 157.266 47.9892 156.848 48.4252C156.046 49.2358 154.806 49.6411 153.127 49.6411H149.499V55.1447H147.722ZM149.504 47.9559H153.267C154.085 48.0316 154.899 47.7708 155.531 47.2306C155.789 46.9456 155.987 46.6092 156.112 46.2422C156.238 45.8753 156.289 45.4856 156.262 45.0975C156.296 44.7105 156.251 44.3205 156.128 43.9529C156.006 43.5854 155.81 43.2485 155.552 42.9643C155.096 42.5216 154.334 42.303 153.267 42.303H149.504V47.9559Z" fill="url(#paint6_linear_21_4)"></path><path d="M172.896 53.5253C173.94 53.5979 174.975 53.2898 175.812 52.6571C176.505 52.045 176.974 51.2147 177.142 50.3004L178.805 50.5691C178.623 51.9095 177.931 53.1255 176.876 53.9594C175.716 54.7873 174.316 55.2018 172.896 55.1377C172.013 55.18 171.131 55.0303 170.31 54.6986C169.49 54.3669 168.749 53.861 168.138 53.2152C166.962 51.9197 166.373 50.1557 166.373 47.9231C166.355 46.8835 166.514 45.8485 166.844 44.8635C167.121 44.0155 167.569 43.2343 168.159 42.5689C168.734 41.9464 169.443 41.4655 170.231 41.1632C171.077 40.8175 171.983 40.6419 172.896 40.6463C174.316 40.5783 175.718 40.9932 176.876 41.8247C177.398 42.2352 177.833 42.7464 178.157 43.3284C178.481 43.9104 178.688 44.5517 178.764 45.215L177.102 45.4837C176.92 44.5968 176.46 43.7925 175.792 43.1891C174.981 42.5151 173.944 42.182 172.896 42.2588C172.184 42.2463 171.478 42.3872 170.824 42.6722C170.241 42.9327 169.727 43.3295 169.325 43.8299C168.908 44.3544 168.602 44.9594 168.425 45.6077C168.221 46.3547 168.126 47.1277 168.143 47.9024C168.075 49.3624 168.508 50.8014 169.371 51.9749C169.802 52.4886 170.344 52.8956 170.955 53.1644C171.566 53.4332 172.23 53.5567 172.896 53.5253Z" fill="url(#paint7_linear_21_4)"></path><path d="M179.841 42.3457V40.6391H193.311V42.3457H187.567V55.1447H185.607V42.3457H179.841Z" fill="url(#paint8_linear_21_4)"></path><path d="M195.383 55.1447V40.6391H200.977C202.516 40.6391 203.694 41.0302 204.513 41.8124C204.933 42.239 205.259 42.7527 205.47 43.3192C205.681 43.8856 205.772 44.4919 205.737 45.0975C205.769 45.7092 205.677 46.3212 205.467 46.8942C205.256 47.4673 204.931 47.9887 204.513 48.4252C203.71 49.2358 202.465 49.6411 200.791 49.6411H197.161V55.1447H195.383ZM197.172 47.9559H200.936C201.755 48.0316 202.569 47.7708 203.202 47.2307C203.459 46.9457 203.657 46.6092 203.783 46.2422C203.909 45.8753 203.96 45.4856 203.933 45.0975C203.967 44.7105 203.921 44.3205 203.799 43.9529C203.676 43.5854 203.48 43.2485 203.222 42.9643C202.766 42.5217 202.004 42.303 200.936 42.303H197.172V47.9559Z" fill="url(#paint9_linear_21_4)"></path><path d="M215.083 55.1446C214.054 55.1503 213.032 54.9747 212.075 54.6273C211.209 54.3123 210.425 53.8328 209.775 53.2203C209.13 52.5596 208.638 51.7852 208.329 50.9442C207.974 49.9569 207.801 48.9218 207.817 47.8819C207.802 46.8623 207.975 45.8478 208.329 44.8816C208.638 44.0406 209.13 43.2662 209.775 42.6056C210.414 41.9707 211.2 41.4757 212.075 41.1572C213.03 40.8025 214.053 40.6266 215.083 40.6399C216.106 40.6261 217.122 40.8021 218.069 41.1572C218.946 41.4693 219.732 41.9652 220.364 42.6056C221.012 43.2636 221.505 44.0388 221.809 44.8816C222.163 45.8478 222.336 46.8623 222.321 47.8819C222.337 48.9218 222.164 49.9569 221.809 50.9442C221.505 51.7871 221.012 52.5622 220.364 53.2203C219.72 53.8382 218.937 54.3186 218.069 54.6273C217.12 54.9752 216.106 55.1508 215.083 55.1446ZM215.083 53.5306C215.825 53.5714 216.568 53.4523 217.251 53.1829C217.934 52.9135 218.54 52.5012 219.02 51.9788C219.935 50.7861 220.426 49.3622 220.426 47.9026C220.426 46.4429 219.935 45.0191 219.02 43.8264C218.54 43.3039 217.934 42.8916 217.251 42.6222C216.568 42.3528 215.825 42.2338 215.083 42.2745C214.342 42.2389 213.601 42.3604 212.919 42.6294C212.236 42.8984 211.63 43.3079 211.147 43.8264C210.235 45.0202 209.746 46.4436 209.746 47.9026C209.746 49.3615 210.235 50.7849 211.147 51.9788C211.63 52.4972 212.236 52.9067 212.919 53.1758C213.601 53.4448 214.342 53.5662 215.083 53.5306Z" fill="url(#paint10_linear_21_4)"></path><path d="M234.07 55.1447V42.5748L226.431 55.1447H224.394V40.4834H226.11V52.8808L233.648 40.4834H235.792V55.1447H234.07ZM226.752 36.4947H228.204C228.218 36.9227 228.369 37.3331 228.631 37.6589C229.034 37.9536 229.512 38.1114 230.001 38.1114C230.491 38.1114 230.969 37.9536 231.371 37.6589C231.642 37.3384 231.794 36.9247 231.799 36.4947H233.25C233.261 36.8944 233.194 37.2921 233.052 37.6631C232.911 38.034 232.7 38.3702 232.43 38.6507C231.74 39.2215 230.869 39.4915 229.996 39.4054C229.121 39.4861 228.249 39.2169 227.552 38.6507C227.287 38.3675 227.08 38.0303 226.943 37.6596C226.805 37.289 226.74 36.8926 226.752 36.4947Z" fill="url(#paint11_linear_21_4)"></path><path d="M95.8978 0L108.011 31.0834H103.76L100.423 22.3222H86.4356L83.1902 31.0834H79L90.9763 0H95.8978ZM87.7613 18.7415H99.0976L93.3837 3.61117L87.7613 18.7415Z" fill="url(#paint12_linear_21_4)"></path><path d="M114.228 31.0834V0H127.098C130.64 0 133.352 0.838036 135.235 2.5141C137.117 4.19017 138.059 6.53667 138.059 9.55359C138.059 12.5705 137.117 14.9475 135.235 16.6845C133.352 18.4215 130.497 19.2849 126.668 19.2748H118.34V31.0834H114.228ZM118.34 15.6789H127.003C129.396 15.6789 131.135 15.1608 132.22 14.1247C133.304 13.0886 133.863 11.5801 133.895 9.5993C133.895 7.4966 133.352 5.9729 132.267 5.02821C131.183 4.08352 129.428 3.61117 127.003 3.61117H118.34V15.6789Z" fill="url(#paint13_linear_21_4)"></path><path d="M140.131 3.65688V0H168.106V3.65688H156.177V31.0834H152.107V3.65688H140.131Z" fill="url(#paint14_linear_21_4)"></path><path d="M173.286 31.0834V0H195.045V3.65688H177.234V13.5609H194.448V17.1264H177.234V27.4113H194.907V31.0834H173.286Z" fill="url(#paint15_linear_21_4)"></path><path d="M216.907 28.2494L206.103 3.70259V31.0834H202.298V0H208.631L218.966 23.5868L229.112 0H235.453V31.0834H231.461V3.70259L220.657 28.2494H216.907Z" fill="url(#paint16_linear_21_4)"></path><defs><linearGradient id="paint0_linear_21_4" x1="49.5" y1="0" x2="49.5" y2="55" gradientUnits="userSpaceOnUse"><stop stop-color="#DBC989"></stop><stop offset="0.5" stop-color="#FFF5D0"></stop><stop offset="1" stop-color="#DBC989"></stop></linearGradient><linearGradient id="paint1_linear_21_4" x1="85.0368" y1="40.6391" x2="85.0368" y2="55.1447" gradientUnits="userSpaceOnUse"><stop stop-color="#FAEFC6"></stop><stop offset="1" stop-color="white"></stop></linearGradient><linearGradient id="paint2_linear_21_4" x1="97.9883" y1="40.6391" x2="97.9883" y2="55.1447" gradientUnits="userSpaceOnUse"><stop stop-color="#FAEFC6"></stop><stop offset="1" stop-color="white"></stop></linearGradient><linearGradient id="paint3_linear_21_4" x1="113.012" y1="40.6391" x2="113.012" y2="55.1447" gradientUnits="userSpaceOnUse"><stop stop-color="#FAEFC6"></stop><stop offset="1" stop-color="white"></stop></linearGradient><linearGradient id="paint4_linear_21_4" x1="125.963" y1="40.6391" x2="125.963" y2="55.1447" gradientUnits="userSpaceOnUse"><stop stop-color="#FAEFC6"></stop><stop offset="1" stop-color="white"></stop></linearGradient><linearGradient id="paint5_linear_21_4" x1="138.915" y1="40.6391" x2="138.915" y2="55.1447" gradientUnits="userSpaceOnUse"><stop stop-color="#FAEFC6"></stop><stop offset="1" stop-color="white"></stop></linearGradient><linearGradient id="paint6_linear_21_4" x1="152.902" y1="40.6391" x2="152.902" y2="55.1447" gradientUnits="userSpaceOnUse"><stop stop-color="#FAEFC6"></stop><stop offset="1" stop-color="white"></stop></linearGradient><linearGradient id="paint7_linear_21_4" x1="172.589" y1="40.6391" x2="172.589" y2="55.1447" gradientUnits="userSpaceOnUse"><stop stop-color="#FAEFC6"></stop><stop offset="1" stop-color="white"></stop></linearGradient><linearGradient id="paint8_linear_21_4" x1="186.576" y1="40.6391" x2="186.576" y2="55.1447" gradientUnits="userSpaceOnUse"><stop stop-color="#FAEFC6"></stop><stop offset="1" stop-color="white"></stop></linearGradient><linearGradient id="paint9_linear_21_4" x1="200.564" y1="40.6391" x2="200.564" y2="55.1447" gradientUnits="userSpaceOnUse"><stop stop-color="#FAEFC6"></stop><stop offset="1" stop-color="white"></stop></linearGradient><linearGradient id="paint10_linear_21_4" x1="215.069" y1="40.6391" x2="215.069" y2="55.1447" gradientUnits="userSpaceOnUse"><stop stop-color="#FAEFC6"></stop><stop offset="1" stop-color="white"></stop></linearGradient><linearGradient id="paint11_linear_21_4" x1="230.093" y1="36.4947" x2="230.093" y2="55.1447" gradientUnits="userSpaceOnUse"><stop stop-color="#FAEFC6"></stop><stop offset="1" stop-color="white"></stop></linearGradient><linearGradient id="paint12_linear_21_4" x1="93.5056" y1="0" x2="93.5056" y2="31.0834" gradientUnits="userSpaceOnUse"><stop stop-color="#FAEFC6"></stop><stop offset="1" stop-color="white"></stop></linearGradient><linearGradient id="paint13_linear_21_4" x1="126.143" y1="0" x2="126.143" y2="31.0834" gradientUnits="userSpaceOnUse"><stop stop-color="#FAEFC6"></stop><stop offset="1" stop-color="white"></stop></linearGradient><linearGradient id="paint14_linear_21_4" x1="154.118" y1="0" x2="154.118" y2="31.0834" gradientUnits="userSpaceOnUse"><stop stop-color="#FAEFC6"></stop><stop offset="1" stop-color="white"></stop></linearGradient><linearGradient id="paint15_linear_21_4" x1="184.166" y1="0" x2="184.166" y2="31.0834" gradientUnits="userSpaceOnUse"><stop stop-color="#FAEFC6"></stop><stop offset="1" stop-color="white"></stop></linearGradient><linearGradient id="paint16_linear_21_4" x1="218.875" y1="0" x2="218.875" y2="31.0834" gradientUnits="userSpaceOnUse"><stop stop-color="#FAEFC6"></stop><stop offset="1" stop-color="white"></stop></linearGradient></defs></svg> 