<?xml version="1.0" encoding="UTF-8"?> <svg xmlns="http://www.w3.org/2000/svg" width="40" height="40" viewBox="0 0 40 40" fill="none"><circle cx="20" cy="20" r="20" fill="#FFF5D0"></circle><path d="M31 13.7C30.9983 13.2623 30.8335 12.8421 30.54 12.527V12.527C30.3873 12.3612 30.2038 12.2291 30.0006 12.1386C29.7973 12.048 29.5784 12.0009 29.3571 12H9.64286C9.21987 12.0017 8.81383 12.1722 8.50929 12.476V12.476C8.3491 12.634 8.22142 12.8239 8.13391 13.0342C8.04639 13.2445 8.00084 13.471 8 13.7V27.3C8.00168 27.7377 8.16645 28.1579 8.46 28.473V28.473C8.6127 28.6388 8.79618 28.7709 8.99945 28.8614C9.20271 28.952 9.42156 28.9991 9.64286 29H29.3571C29.7801 28.9983 30.1862 28.8278 30.4907 28.524V28.524C30.6509 28.366 30.7786 28.1761 30.8661 27.9658C30.9536 27.7555 30.9992 27.529 31 27.3V13.7ZM9.64286 14.9325L15.0561 20.5L9.64286 26.127V14.9325ZM19.5 22.727L10.8011 13.7H28.1989L19.5 22.727ZM16.2143 21.7325L18.925 24.5375C19.0832 24.6822 19.2891 24.7582 19.5 24.75C19.6087 24.7495 19.7162 24.7268 19.8163 24.683C19.9164 24.6392 20.0071 24.5753 20.0832 24.495L22.7857 21.7325L28.1989 27.3H10.8011L16.2143 21.7325ZM23.9439 20.5L29.3571 14.9325V26.127L23.9439 20.5Z" fill="url(#paint0_linear_36_5)"></path><defs><linearGradient id="paint0_linear_36_5" x1="8.37077" y1="12.3125" x2="11.3454" y2="31.9737" gradientUnits="userSpaceOnUse"><stop stop-opacity="0.9"></stop><stop offset="1" stop-color="#2C2E71" stop-opacity="0.9"></stop></linearGradient></defs></svg> 