<?xml version="1.0" encoding="UTF-8"?> <svg xmlns="http://www.w3.org/2000/svg" width="40" height="40" viewBox="0 0 40 40" fill="none"><circle cx="20" cy="20" r="20" fill="#FFF5D0"></circle><path fill-rule="evenodd" clip-rule="evenodd" d="M13 17C13 13.13 16.13 10 20 10C23.87 10 27 13.13 27 17C27 22.25 20 30 20 30C20 30 13 22.25 13 17ZM17.5 17C17.5 18.38 18.62 19.5 20 19.5C21.38 19.5 22.5 18.38 22.5 17C22.5 15.62 21.38 14.5 20 14.5C18.62 14.5 17.5 15.62 17.5 17Z" fill="url(#paint0_linear_81_12)"></path><defs><linearGradient id="paint0_linear_81_12" x1="13.2257" y1="10.3676" x2="19.5994" y2="32.1641" gradientUnits="userSpaceOnUse"><stop stop-opacity="0.9"></stop><stop offset="1" stop-color="#2C2E71" stop-opacity="0.9"></stop></linearGradient></defs></svg> 